HIERARCHY
ROOT Hips
{
	OFFSET 0.000000 83.214638 0.000000
	CHANNELS 6 Xposition Yposition Zposition Xrotation Yrotation Zrotation
	JOINT Pelvis
	{
		OFFSET 0.000000 0.000000 0.000000
		CHANNELS 3 Xrotation Yrotation Zrotation
		JOINT LeftUpLeg
		{
			OFFSET 8.479700 -4.795502 -0.379100
			CHANNELS 3 Xrotation Yrotation Zrotation
			JOINT LeftLeg
			{
				OFFSET 0.024144 -32.555107 0.112900
				CHANNELS 3 Xrotation Yrotation Zrotation
				JOINT LeftFoot
				{
					OFFSET -0.024144 -32.638630 -3.012600
					CHANNELS 3 Xrotation Yrotation Zrotation
					JOINT LeftToeBase
					{
						OFFSET 0.970200 -13.225400 11.864200
						CHANNELS 3 Xrotation Yrotation Zrotation
						End Site
						{
							OFFSET 0.000000 12.319262 0.000000
						}
					}
					JOINT LFootTongue
					{
						OFFSET 1.142400 -1.059800 6.665200
						CHANNELS 3 Xrotation Yrotation Zrotation
						End Site
						{
							OFFSET 0.000000 12.319262 0.000000
						}
					}
				}
				JOINT LeftPantLeg
				{
					OFFSET 0.918482 -16.533964 -2.284700
					CHANNELS 3 Xrotation Yrotation Zrotation
					End Site
					{
						OFFSET 0.350399 24.744368 0.000000
					}
				}
			}
		}
		JOINT RightUpLeg
		{
			OFFSET -8.479700 -4.795502 -0.379100
			CHANNELS 3 Xrotation Yrotation Zrotation
			JOINT RightLeg
			{
				OFFSET -0.023144 -32.555092 0.112900
				CHANNELS 3 Xrotation Yrotation Zrotation
				JOINT RightFoot
				{
					OFFSET 0.023144 -32.638641 -3.012700
					CHANNELS 3 Xrotation Yrotation Zrotation
					JOINT RightToeBase
					{
						OFFSET -0.970200 -13.225400 11.864200
						CHANNELS 3 Xrotation Yrotation Zrotation
						End Site
						{
							OFFSET 0.000000 12.319244 0.000000
						}
					}
					JOINT RFootTongue
					{
						OFFSET -1.142200 -1.059800 6.665200
						CHANNELS 3 Xrotation Yrotation Zrotation
						End Site
						{
							OFFSET 0.000000 12.319243 0.000000
						}
					}
				}
				JOINT RightPantLeg
				{
					OFFSET -0.919482 -16.533978 -2.284800
					CHANNELS 3 Xrotation Yrotation Zrotation
					End Site
					{
						OFFSET -0.350400 24.744419 0.000000
					}
				}
			}
		}
	}
	JOINT Spine
	{
		OFFSET 0.000000 7.722000 1.166200
		CHANNELS 3 Xrotation Yrotation Zrotation
		JOINT Spine1
		{
			OFFSET 0.000000 12.024101 0.248800
			CHANNELS 3 Xrotation Yrotation Zrotation
			JOINT Spine2
			{
				OFFSET 0.000000 11.502998 -0.491200
				CHANNELS 3 Xrotation Yrotation Zrotation
				JOINT Neck
				{
					OFFSET 0.000000 18.430702 -3.123100
					CHANNELS 3 Xrotation Yrotation Zrotation
					JOINT Head
					{
						OFFSET 0.000000 9.051102 1.034000
						CHANNELS 3 Xrotation Yrotation Zrotation
						JOINT HairB
						{
							OFFSET 0.208400 24.786102 24.822300
							CHANNELS 3 Xrotation Yrotation Zrotation
							End Site
							{
								OFFSET 0.000000 32.263779 0.000000
							}
						}
						JOINT HairA
						{
							OFFSET -7.081100 24.428299 23.196600
							CHANNELS 3 Xrotation Yrotation Zrotation
							End Site
							{
								OFFSET 0.000000 32.263779 0.000000
							}
						}
						JOINT Hat
						{
							OFFSET 16.728800 15.048294 -15.439601
							CHANNELS 3 Xrotation Yrotation Zrotation
							End Site
							{
								OFFSET 0.000000 32.263779 0.000000
							}
						}
					}
				}
				JOINT LeftShoulder
				{
					OFFSET 6.197800 13.665199 -4.064700
					CHANNELS 3 Xrotation Yrotation Zrotation
					JOINT LeftArm
					{
						OFFSET 7.778100 -0.187103 -1.709300
						CHANNELS 3 Xrotation Yrotation Zrotation
						JOINT LeftForeArm
						{
							OFFSET 22.049376 0.000000 0.000000
							CHANNELS 3 Xrotation Yrotation Zrotation
							JOINT LeftHand
							{
								OFFSET 23.009392 0.000000 0.000000
								CHANNELS 3 Xrotation Yrotation Zrotation
								JOINT LeftHandThumb1
								{
									OFFSET 3.507191 -2.063065 3.133727
									CHANNELS 3 Xrotation Yrotation Zrotation
									JOINT LeftHandThumb2
									{
										OFFSET 3.101337 -1.790558 1.790558
										CHANNELS 3 Xrotation Yrotation Zrotation
										JOINT LeftHandThumb3
										{
											OFFSET 3.058640 -1.765907 1.765906
											CHANNELS 3 Xrotation Yrotation Zrotation
											End Site
											{
												OFFSET -0.415260 3.926476 -0.049563
											}
										}
									}
								}
								JOINT LeftHandIndex1
								{
									OFFSET 11.334419 -0.901459 3.706815
									CHANNELS 3 Xrotation Yrotation Zrotation
									JOINT LeftHandIndex2
									{
										OFFSET 3.283112 0.000000 0.000000
										CHANNELS 3 Xrotation Yrotation Zrotation
										JOINT LeftHandIndex3
										{
											OFFSET 3.323853 0.000000 0.000000
											CHANNELS 3 Xrotation Yrotation Zrotation
											End Site
											{
												OFFSET -1.135597 3.097809 0.402452
											}
										}
									}
								}
								JOINT LeftHandMiddle1
								{
									OFFSET 11.335861 0.000000 0.000000
									CHANNELS 3 Xrotation Yrotation Zrotation
									JOINT LeftHandMiddle2
									{
										OFFSET 3.410492 0.000000 0.000000
										CHANNELS 3 Xrotation Yrotation Zrotation
										JOINT LeftHandMiddle3
										{
											OFFSET 3.312172 0.000000 0.000000
											CHANNELS 3 Xrotation Yrotation Zrotation
											End Site
											{
												OFFSET -1.150200 3.080154 0.400270
											}
										}
									}
								}
								JOINT LeftHandRing1
								{
									OFFSET 11.514786 -0.013176 -3.003090
									CHANNELS 3 Xrotation Yrotation Zrotation
									JOINT LeftHandRing2
									{
										OFFSET 3.053307 0.000000 0.000000
										CHANNELS 3 Xrotation Yrotation Zrotation
										JOINT LeftHandRing3
										{
											OFFSET 3.295807 0.000000 0.000000
											CHANNELS 3 Xrotation Yrotation Zrotation
											End Site
											{
												OFFSET -1.281006 3.013344 0.375733
											}
										}
									}
								}
								JOINT LeftHandPinky1
								{
									OFFSET 10.518692 -0.960396 -5.730441
									CHANNELS 3 Xrotation Yrotation Zrotation
									JOINT LeftHandPinky2
									{
										OFFSET 2.861649 0.000000 0.000000
										CHANNELS 3 Xrotation Yrotation Zrotation
										JOINT LeftHandPinky3
										{
											OFFSET 2.863380 0.000000 0.000000
											CHANNELS 3 Xrotation Yrotation Zrotation
											End Site
											{
												OFFSET -0.843597 2.711159 0.369971
											}
										}
									}
								}
							}
							JOINT LSleeve
							{
								OFFSET 6.676277 -0.344902 -1.011730
								CHANNELS 3 Xrotation Yrotation Zrotation
								End Site
								{
									OFFSET 0.000000 14.885353 0.000000
								}
							}
						}
					}
				}
				JOINT RightShoulder
				{
					OFFSET -6.197800 13.665199 -4.064700
					CHANNELS 3 Xrotation Yrotation Zrotation
					JOINT RightArm
					{
						OFFSET -7.778100 -0.187103 -1.709300
						CHANNELS 3 Xrotation Yrotation Zrotation
						JOINT RightForeArm
						{
							OFFSET -22.049376 0.000000 0.000000
							CHANNELS 3 Xrotation Yrotation Zrotation
							JOINT RightHand
							{
								OFFSET -23.009392 0.000000 0.000000
								CHANNELS 3 Xrotation Yrotation Zrotation
								JOINT RightHandThumb1
								{
									OFFSET -3.507191 -2.063065 3.133727
									CHANNELS 3 Xrotation Yrotation Zrotation
									JOINT RightHandThumb2
									{
										OFFSET -3.101337 -1.790558 1.790558
										CHANNELS 3 Xrotation Yrotation Zrotation
										JOINT RightHandThumb3
										{
											OFFSET -3.058640 -1.765907 1.765906
											CHANNELS 3 Xrotation Yrotation Zrotation
											End Site
											{
												OFFSET 0.415260 3.926476 -0.049563
											}
										}
									}
								}
								JOINT RightHandIndex1
								{
									OFFSET -11.334419 -0.901459 3.706815
									CHANNELS 3 Xrotation Yrotation Zrotation
									JOINT RightHandIndex2
									{
										OFFSET -3.283112 0.000000 0.000000
										CHANNELS 3 Xrotation Yrotation Zrotation
										JOINT RightHandIndex3
										{
											OFFSET -3.323853 0.000000 0.000000
											CHANNELS 3 Xrotation Yrotation Zrotation
											End Site
											{
												OFFSET 1.135597 3.097809 0.402452
											}
										}
									}
								}
								JOINT RightHandMiddle1
								{
									OFFSET -11.335861 0.000000 0.000000
									CHANNELS 3 Xrotation Yrotation Zrotation
									JOINT RightHandMiddle2
									{
										OFFSET -3.410492 0.000000 0.000000
										CHANNELS 3 Xrotation Yrotation Zrotation
										JOINT RightHandMiddle3
										{
											OFFSET -3.312172 0.000000 0.000000
											CHANNELS 3 Xrotation Yrotation Zrotation
											End Site
											{
												OFFSET 1.150200 3.080154 0.400270
											}
										}
									}
								}
								JOINT RightHandRing1
								{
									OFFSET -11.514786 -0.013176 -3.003090
									CHANNELS 3 Xrotation Yrotation Zrotation
									JOINT RightHandRing2
									{
										OFFSET -3.053307 0.000000 0.000000
										CHANNELS 3 Xrotation Yrotation Zrotation
										JOINT RightHandRing3
										{
											OFFSET -3.295807 0.000000 0.000000
											CHANNELS 3 Xrotation Yrotation Zrotation
											End Site
											{
												OFFSET 1.281006 3.013344 0.375733
											}
										}
									}
								}
								JOINT RightHandPinky1
								{
									OFFSET -10.518692 -0.960396 -5.730441
									CHANNELS 3 Xrotation Yrotation Zrotation
									JOINT RightHandPinky2
									{
										OFFSET -2.861649 0.000000 0.000000
										CHANNELS 3 Xrotation Yrotation Zrotation
										JOINT RightHandPinky3
										{
											OFFSET -2.863380 0.000000 0.000000
											CHANNELS 3 Xrotation Yrotation Zrotation
											End Site
											{
												OFFSET 0.843597 2.711159 0.369971
											}
										}
									}
								}
							}
							JOINT RSleeve
							{
								OFFSET -6.676277 -0.344902 -1.011730
								CHANNELS 3 Xrotation Yrotation Zrotation
								End Site
								{
									OFFSET 0.000000 14.885353 0.000000
								}
							}
						}
					}
				}
				JOINT Backpack
				{
					OFFSET 0.000000 -2.471497 36.677502
					CHANNELS 3 Xrotation Yrotation Zrotation
					End Site
					{
						OFFSET 0.000000 20.427315 0.000000
					}
				}
				JOINT Hood
				{
					OFFSET 0.000000 18.754097 -10.431000
					CHANNELS 3 Xrotation Yrotation Zrotation
					JOINT Hood1
					{
						OFFSET 0.000000 -5.011002 -7.685901
						CHANNELS 3 Xrotation Yrotation Zrotation
						End Site
						{
							OFFSET 0.000000 9.175140 0.000000
						}
					}
				}
				JOINT LHoodieString
				{
					OFFSET 5.250500 16.397697 3.089900
					CHANNELS 3 Xrotation Yrotation Zrotation
					JOINT LHoodieString1
					{
						OFFSET 0.257700 -6.364304 3.694600
						CHANNELS 3 Xrotation Yrotation Zrotation
						JOINT LHoodieString2
						{
							OFFSET 0.000000 -9.643799 2.679100
							CHANNELS 3 Xrotation Yrotation Zrotation
							End Site
							{
								OFFSET 0.000000 10.009018 0.000000
							}
						}
					}
				}
				JOINT RHoodieString
				{
					OFFSET -5.250500 16.397697 3.089900
					CHANNELS 3 Xrotation Yrotation Zrotation
					JOINT RHoodieString1
					{
						OFFSET -0.257700 -6.364304 3.694600
						CHANNELS 3 Xrotation Yrotation Zrotation
						JOINT RHoodieString2
						{
							OFFSET 0.000000 -9.643799 2.679100
							CHANNELS 3 Xrotation Yrotation Zrotation
							End Site
							{
								OFFSET 0.000000 10.009018 0.000000
							}
						}
					}
				}
			}
			JOINT LBackpack_Strap
			{
				OFFSET 15.223200 -7.719803 -6.610900
				CHANNELS 3 Xrotation Yrotation Zrotation
				End Site
				{
					OFFSET 0.000000 16.040596 0.000000
				}
			}
			JOINT RBackpack_Strap
			{
				OFFSET -15.223000 -7.719803 -6.610900
				CHANNELS 3 Xrotation Yrotation Zrotation
				End Site
				{
					OFFSET 0.000000 16.040596 0.000000
				}
			}
		}
	}
	JOINT BoyFacialAnim_Joint
	{
		OFFSET 1.000000 -82.208099 -1.550900
		CHANNELS 3 Xrotation Yrotation Zrotation
		End Site
		{
			OFFSET 0.000000 30.012791 0.000000
		}
	}
}
MOTION
Frames: 5
Frame Time: 0.016667
0.270672 67.976288 -0.326277 -4.311174 -74.798959 -3.442307 -0.000000 -0.000002 -0.000000 -41.525259 13.103843 48.299792 39.086762 -0.283423 -7.069217 7.825007 -1.794615 -19.911074 -0.000000 -0.000003 0.000000 -0.000000 -0.000003 0.000000 0.000001 -0.000001 0.000002 -40.684438 -0.893146 -24.761739 61.723750 9.494073 -7.107919 -19.057319 -4.860929 20.603184 -0.000000 -0.000000 -0.000000 -0.000000 -0.000000 -0.000000 -0.000002 0.000000 0.000001 2.954206 -0.391588 -1.413350 5.893827 -0.904737 -3.151097 5.893816 -0.904604 -3.151105 -2.451544 24.309818 7.456969 0.154237 27.772015 -8.533999 0.000001 -0.000004 0.000000 0.000001 -0.000004 0.000000 0.000001 -0.000004 0.000000 0.279785 -7.010228 -19.556609 -39.504052 -20.309105 -2.427268 -5.614212 -32.071556 -2.800589 4.686492 -29.138024 18.780613 18.604740 9.201160 -20.335715 9.366560 23.517120 3.907242 0.000001 -0.000000 -0.000000 5.062929 7.259569 -60.393489 0.009035 -4.396056 -76.234753 -0.000002 0.000002 -0.000001 -0.063972 4.758050 -60.986821 -0.080416 -4.896945 -84.974370 0.000001 -0.000001 -0.000000 -0.034416 -0.057001 -61.362276 -0.169956 -1.351960 -91.625383 -0.000003 0.000001 -0.000002 -4.255102 -2.157316 -63.603172 -0.059597 -0.064762 -85.011075 -0.000000 -0.000002 -0.000001 -0.000000 0.000000 -0.000001 0.636237 13.855928 9.110356 35.455246 67.114409 -18.850871 0.649619 83.885296 -11.766905 -31.174059 -5.150262 -0.072266 15.959772 -4.187788 29.032214 -14.791937 -41.235498 -16.515534 -0.000002 -0.000002 0.000002 5.358228 -4.863594 67.585043 0.006265 4.394821 68.693453 -0.000001 0.000002 -0.000001 -0.076808 -4.752210 70.834888 -0.076450 4.897898 82.216367 -0.000001 0.000000 -0.000000 -1.164529 -6.475313 73.357488 -0.172084 1.351247 92.834367 -0.000000 -0.000001 0.000000 -5.344944 -12.802396 81.125244 -0.058386 0.065297 84.696005 -0.000000 -0.000001 0.000003 0.000002 -0.000000 -0.000001 -0.000000 -0.000001 -0.000000 -0.000000 -0.000001 -0.000000 -0.000000 -0.000001 -0.000000 -0.000000 -0.000001 -0.000000 -0.000000 -0.000001 -0.000000 0.000001 -0.000001 -0.000000 -0.000000 -0.000001 -0.000000 -0.000000 -0.000001 -0.000000 0.000001 -0.000001 -0.000000 -0.000000 -0.000000 0.000000 -0.000000 -0.000000 0.000000 -0.000000 -0.000002 -0.000000 
0.270692 67.976120 -0.326143 -4.311182 -74.798973 -3.442415 -0.000000 0.000001 0.000000 -41.364613 12.941981 48.173652 39.114116 -0.070631 -7.051372 7.808766 -1.790455 -20.002130 0.000000 -0.000003 0.000000 0.000000 -0.000003 0.000000 0.000000 0.000001 0.000002 -40.668644 -0.866127 -24.741918 61.719515 9.460428 -7.110232 -19.057712 -4.866354 20.623119 -0.000000 0.000000 0.000000 -0.000000 0.000000 0.000000 0.000001 0.000000 -0.000001 2.954206 -0.391566 -1.413251 5.893828 -0.904735 -3.151098 5.893815 -0.904604 -3.151105 -2.481197 24.333322 7.459438 0.160616 27.801715 -8.536962 0.000001 -0.000001 0.000001 0.000001 -0.000001 0.000001 0.000001 -0.000001 0.000001 0.279788 -7.010233 -19.556604 -39.570021 -20.279824 -2.378967 -5.525906 -32.234173 -2.805741 4.608311 -29.480001 18.629566 18.604744 9.201158 -20.335717 9.366560 23.517120 3.907245 0.000000 0.000001 -0.000001 5.062930 7.259562 -60.393496 0.009035 -4.396057 -76.234753 -0.000001 -0.000002 -0.000000 -0.063971 4.758051 -60.986814 -0.080417 -4.896948 -84.974363 -0.000001 0.000000 0.000000 -0.034409 -0.057001 -61.362276 -0.169953 -1.351961 -91.625383 -0.000002 0.000004 0.000002 -4.255099 -2.157312 -63.603172 -0.059594 -0.064762 -85.011075 0.000000 0.000000 -0.000002 -0.000002 0.000001 0.000000 0.636226 13.855917 9.110390 35.361023 66.921579 -19.125237 1.039646 84.331103 -12.064348 -30.137093 -3.581549 -2.922842 15.959772 -4.187787 29.032218 -14.791932 -41.235498 -16.515537 0.000000 -0.000001 -0.000002 5.358229 -4.863593 67.585036 0.006264 4.394821 68.693453 -0.000003 -0.000004 0.000005 -0.076806 -4.752207 70.834888 -0.076449 4.897894 82.216367 0.000002 -0.000001 0.000005 -1.164526 -6.475312 73.357482 -0.172085 1.351246 92.834367 -0.000002 0.000000 0.000002 -5.344941 -12.802394 81.125244 -0.058386 0.065299 84.696012 -0.000002 -0.000000 0.000000 -0.000001 -0.000000 -0.000000 -0.000001 -0.000001 0.000000 -0.000001 -0.000001 0.000000 -0.000001 -0.000001 0.000000 -0.000001 -0.000001 0.000000 -0.000001 -0.000001 -0.000000 -0.000000 -0.000001 -0.000000 -0.000001 -0.000001 0.000000 -0.000001 -0.000001 -0.000000 -0.000000 -0.000001 -0.000000 -0.000000 -0.000000 -0.000000 -0.000000 -0.000000 -0.000000 -0.000000 0.000001 0.000000 
0.290017 68.129753 -0.321940 -5.308850 -75.227157 -4.445655 -0.000000 -0.000002 -0.000000 -40.614825 13.176471 48.105060 38.660933 0.475536 -6.938624 7.924156 -1.808658 -20.211821 -0.000000 -0.000002 -0.000000 -0.000000 -0.000002 -0.000000 0.000001 -0.000003 -0.000001 -40.420257 -0.946060 -24.597574 61.262248 9.778760 -7.058154 -18.765120 -4.754353 20.421675 -0.000000 0.000000 -0.000000 -0.000000 0.000000 -0.000000 0.000002 -0.000000 0.000002 2.901531 -0.356989 -1.368504 5.790269 -0.823355 -3.057951 5.790281 -0.823174 -3.058011 -2.569100 24.400583 7.466814 0.176401 27.894289 -8.544356 -0.000000 0.000001 -0.000000 -0.000000 0.000001 -0.000000 -0.000000 0.000001 -0.000000 0.268779 -7.020030 -19.607416 -39.486877 -20.023347 -2.512439 -5.275118 -32.657166 -2.924883 4.324755 -29.568627 18.253906 18.604739 9.201160 -20.335717 9.366563 23.517122 3.907243 0.000001 0.000001 0.000000 5.062931 7.259567 -60.393489 0.009034 -4.396059 -76.234747 -0.000002 -0.000003 -0.000006 -0.063973 4.758049 -60.986814 -0.080418 -4.896946 -84.974370 -0.000001 0.000003 -0.000001 -0.034412 -0.057006 -61.362283 -0.169953 -1.351962 -91.625383 -0.000001 0.000006 0.000000 -4.255101 -2.157321 -63.603172 -0.059592 -0.064759 -85.011075 0.000001 -0.000001 0.000001 -0.000000 -0.000001 0.000001 0.634737 13.830889 9.149996 35.145063 66.734828 -18.516974 1.797474 83.923996 -12.613812 -28.913799 -1.718585 -3.791599 15.959777 -4.187788 29.032214 -14.791934 -41.235498 -16.515537 -0.000000 0.000001 0.000001 5.358229 -4.863593 67.585043 0.006266 4.394822 68.693453 -0.000000 0.000001 0.000002 -0.076807 -4.752207 70.834888 -0.076450 4.897891 82.216360 0.000002 -0.000001 0.000003 -1.164519 -6.475311 73.357482 -0.172083 1.351245 92.834367 0.000003 -0.000000 0.000000 -5.344939 -12.802394 81.125244 -0.058388 0.065295 84.696005 -0.000003 -0.000001 -0.000000 0.000002 0.000000 -0.000000 0.000001 -0.000000 -0.000000 0.000001 -0.000000 -0.000000 0.000001 -0.000000 -0.000000 0.000001 -0.000000 -0.000000 0.000001 -0.000000 -0.000000 0.000001 -0.000001 -0.000000 0.000001 -0.000000 -0.000000 0.000001 -0.000000 -0.000000 0.000001 -0.000001 -0.000000 -0.000000 0.000001 -0.000001 -0.000000 0.000001 -0.000001 -0.000000 -0.000002 -0.000000 
0.317931 68.313797 -0.331086 -6.743691 -75.818672 -5.888867 -0.000000 0.000001 0.000000 -39.677621 13.533018 48.087766 38.074818 1.136984 -6.810424 8.086706 -1.835837 -20.466991 -0.000000 -0.000001 -0.000000 -0.000000 -0.000001 -0.000000 0.000000 0.000001 0.000003 -40.125958 -1.010175 -24.371571 60.722383 10.191619 -6.993637 -18.397374 -4.610731 20.150793 0.000000 0.000000 0.000000 0.000000 0.000000 0.000000 -0.000001 -0.000001 0.000001 2.821900 -0.308196 -1.315628 5.633338 -0.706282 -2.949007 5.633327 -0.706348 -2.949010 -2.701127 24.509331 7.478632 0.204687 28.042600 -8.562600 -0.000000 0.000001 0.000000 -0.000000 0.000001 0.000000 -0.000000 0.000001 0.000000 0.235410 -7.052425 -19.747774 -38.990893 -19.413549 -3.073291 -4.884501 -33.341316 -3.229801 3.787405 -29.109850 17.675561 18.604739 9.201162 -20.335719 9.366562 23.517120 3.907244 -0.000001 0.000002 -0.000001 5.062930 7.259568 -60.393496 0.009035 -4.396058 -76.234753 -0.000002 0.000003 -0.000001 -0.063973 4.758055 -60.986821 -0.080418 -4.896946 -84.974370 0.000001 0.000001 -0.000001 -0.034415 -0.056998 -61.362283 -0.169956 -1.351958 -91.625383 -0.000003 0.000003 -0.000002 -4.255103 -2.157315 -63.603179 -0.059586 -0.064760 -85.011075 -0.000000 0.000000 0.000001 -0.000001 0.000005 0.000004 0.630146 13.759756 9.265012 34.557930 66.432052 -17.348042 2.853610 83.375368 -13.339021 -27.579619 0.446904 -4.373112 15.959779 -4.187787 29.032218 -14.791939 -41.235505 -16.515532 -0.000001 -0.000002 0.000001 5.358230 -4.863594 67.585036 0.006268 4.394823 68.693453 -0.000001 0.000002 -0.000001 -0.076800 -4.752208 70.834881 -0.076449 4.897895 82.216360 0.000000 -0.000001 0.000001 -1.164526 -6.475310 73.357488 -0.172084 1.351243 92.834367 -0.000001 -0.000000 0.000002 -5.344941 -12.802393 81.125237 -0.058388 0.065297 84.696012 -0.000004 -0.000000 0.000000 -0.000000 -0.000000 0.000000 0.000001 0.000000 -0.000001 0.000001 0.000000 -0.000001 0.000001 0.000000 -0.000001 0.000001 0.000000 -0.000001 0.000001 0.000000 -0.000000 -0.000000 0.000000 -0.000000 0.000001 0.000000 -0.000001 0.000001 0.000000 -0.000000 -0.000000 0.000000 -0.000000 -0.000000 -0.000000 0.000000 -0.000000 -0.000000 0.000000 -0.000000 0.000001 0.000000 
0.352918 68.525131 -0.354254 -8.615487 -76.508166 -7.770872 0.000000 -0.000001 -0.000000 -38.590156 13.994215 48.094244 37.345470 1.885058 -6.675925 8.313664 -1.875462 -20.743010 0.000000 0.000000 0.000000 0.000000 0.000000 0.000000 -0.000001 0.000003 0.000004 -39.775241 -1.059763 -24.078001 60.105351 10.649950 -6.920238 -17.969268 -4.447781 19.840924 0.000000 -0.000000 -0.000000 0.000000 -0.000000 -0.000000 0.000001 0.000000 0.000000 2.736278 -0.251652 -1.254514 5.463877 -0.576414 -2.823615 5.463879 -0.576621 -2.823582 -2.878979 24.654565 7.494872 0.243574 28.241673 -8.588796 0.000001 -0.000001 0.000000 0.000001 -0.000001 0.000000 0.000001 -0.000001 0.000000 0.178888 -7.112255 -19.959758 -38.090032 -18.526664 -4.022172 -4.376991 -34.383678 -3.672000 3.181907 -28.539795 16.950658 18.604740 9.201159 -20.335719 9.366565 23.517130 3.907242 0.000001 -0.000001 -0.000000 5.062931 7.259566 -60.393496 0.009034 -4.396057 -76.234753 -0.000003 0.000000 -0.000000 -0.063972 4.758053 -60.986821 -0.080417 -4.896946 -84.974370 -0.000001 -0.000001 -0.000002 -0.034410 -0.057002 -61.362283 -0.169953 -1.351960 -91.625383 -0.000001 0.000001 -0.000000 -4.255101 -2.157316 -63.603179 -0.059600 -0.064763 -85.011075 -0.000000 0.000003 0.000002 0.000003 0.000003 0.000002 0.618021 13.645858 9.451069 33.426638 66.007727 -15.519190 3.993592 82.618849 -14.044043 -26.148310 2.831875 -4.678523 15.959772 -4.187787 29.032214 -14.791936 -41.235498 -16.515536 -0.000002 -0.000003 0.000001 5.358232 -4.863592 67.585036 0.006267 4.394824 68.693453 -0.000003 -0.000002 -0.000000 -0.076808 -4.752208 70.834888 -0.076449 4.897889 82.216367 -0.000000 0.000001 0.000000 -1.164522 -6.475309 73.357488 -0.172087 1.351246 92.834367 -0.000000 -0.000001 0.000002 -5.344938 -12.802392 81.125244 -0.058387 0.065299 84.696005 -0.000000 0.000001 -0.000001 0.000002 -0.000000 -0.000001 0.000000 -0.000000 0.000001 0.000000 -0.000000 0.000001 0.000000 -0.000000 0.000001 0.000000 -0.000000 0.000001 0.000000 -0.000000 0.000001 0.000000 -0.000000 0.000000 0.000000 -0.000000 0.000001 0.000000 -0.000000 0.000001 0.000000 -0.000000 0.000000 0.000001 -0.000000 -0.000000 0.000001 -0.000000 -0.000000 0.000000 -0.000001 -0.000000 
